<svg xmlns:dc="http://purl.org/dc/elements/1.1/" xmlns:cc="http://creativecommons.org/ns#" xmlns:rdf="http://www.w3.org/1999/02/22-rdf-syntax-ns#" xmlns:svg="http://www.w3.org/2000/svg" xmlns="http://www.w3.org/2000/svg" xmlns:sodipodi="http://sodipodi.sourceforge.net/DTD/sodipodi-0.dtd" xmlns:inkscape="http://www.inkscape.org/namespaces/inkscape" version="1.1" x="0px" y="0px" viewBox="0 0 100 125"><g transform="translate(0,-952.36218)"><path style="font-size:medium;font-style:normal;font-variant:normal;font-weight:normal;font-stretch:normal;text-indent:0;text-align:start;text-decoration:none;line-height:normal;letter-spacing:normal;word-spacing:normal;text-transform:none;direction:ltr;block-progression:tb;writing-mode:lr-tb;text-anchor:start;baseline-shift:baseline;opacity:1;color:#000000;fill:#000000;fill-opacity:1;stroke:none;stroke-width:6;marker:none;visibility:visible;display:inline;overflow:visible;enable-background:accumulate;font-family:Sans;-inkscape-font-specification:Sans" d="M 49.96875 6 C 47.892701 6.00035 45.816489 6.7815 44.25 8.34375 L 34.5625 18 L 8.28125 44.21875 A 3.0003 3.0003 0 0 0 8.0625 44.46875 C 5.5857898 47.59913 5.1359363 52.4881 8.28125 55.625 L 17.9375 65.28125 C 21.072462 68.41245 26.241347 68.40625 29.375 65.28125 L 49.9375 44.75 L 70.53125 65.28125 C 72.099011 66.84485 74.182834 67.65625 76.25 67.65625 C 78.317163 67.65625 80.402282 66.84355 81.96875 65.28125 L 91.625 55.65625 C 94.760167 52.52955 94.76015 47.34554 91.625 44.21875 L 65.34375 18 L 55.6875 8.34375 C 55.6811 8.33775 55.66266 8.34975 55.65625 8.34375 C 54.091375 6.79123 52.036323 5.99965 49.96875 6 z M 49.9375 11.96875 C 50.46364 11.96834 51.009691 12.16645 51.4375 12.59375 L 61.09375 22.25 L 87.375 48.46875 C 88.22973 49.32115 88.229713 50.55385 87.375 51.40625 L 77.71875 61.03125 C 77.29027 61.45865 76.786993 61.65625 76.25 61.65625 C 75.712992 61.65625 75.177187 61.45735 74.75 61.03125 L 52.0625 38.40625 A 3.0003 3.0003 0 0 0 47.84375 38.40625 L 25.15625 61.03125 C 24.299985 61.88515 23.042418 61.88515 22.1875 61.03125 L 12.53125 51.375 C 11.716792 50.5627 11.771729 49.5378 12.6875 48.3125 L 38.8125 22.25 L 48.46875 12.59375 C 48.897201 12.16646 49.41136 11.96916 49.9375 11.96875 z M 50 60 C 40.646693 60 33 67.6467 33 77 C 33 86.3533 40.646693 94 50 94 C 59.353307 94 67 86.3533 67 77 C 67 67.6467 59.353307 60 50 60 z M 50 66 C 56.110667 66 61 70.8893 61 77 C 61 83.1107 56.110667 88 50 88 C 43.889333 88 39 83.1107 39 77 C 39 70.8893 43.889333 66 50 66 z " transform="translate(0,952.36218)"/></g><text x="0" y="115" fill="#000000" font-size="5px" font-weight="bold" font-family="'Helvetica Neue', Helvetica, Arial-Unicode, Arial, Sans-serif">Created by counloucon</text><text x="0" y="120" fill="#000000" font-size="5px" font-weight="bold" font-family="'Helvetica Neue', Helvetica, Arial-Unicode, Arial, Sans-serif">from the Noun Project</text></svg>